<svg xmlns="http://www.w3.org/2000/svg" viewBox="0 0 240 240" role="img" aria-labelledby="title">
  <title>Unidentified Powerthrough Logo</title>
  <defs>
    <linearGradient id="pulse" x1="0%" y1="0%" x2="100%" y2="100%">
      <stop offset="0%" stop-color="#c48aff" />
      <stop offset="50%" stop-color="#8741ff" />
      <stop offset="100%" stop-color="#3a1fd5" />
    </linearGradient>
    <linearGradient id="ring" x1="0%" y1="0%" x2="0%" y2="100%">
      <stop offset="0%" stop-color="#f1e8ff" stop-opacity="0.4" />
      <stop offset="100%" stop-color="#f1e8ff" stop-opacity="0" />
    </linearGradient>
  </defs>

  <circle cx="120" cy="120" r="110" fill="#0c0318" stroke="#5f35ff" stroke-width="4" opacity="0.85" />
  <circle cx="120" cy="120" r="86" fill="none" stroke="url(#ring)" stroke-width="22" />

  <path
    d="M60 150c46 24 92-20 120-62-7 48-34 98-80 98-22 0-38-8-40-36z"
    fill="url(#pulse)"
  />
  <path
    d="M86 68c30-10 68 4 84 32-22-20-54-26-78-10-20 14-28 42-16 64-22-24-20-78 10-86z"
    fill="#e3ccff"
    opacity="0.7"
  />

  <circle cx="166" cy="92" r="12" fill="#fdf5ff" opacity="0.9" />
  <path
    d="M176 90c6 4 12 12 12 22 0 16-16 30-32 30"
    fill="none"
    stroke="#b38cff"
    stroke-width="6"
    stroke-linecap="round"
    opacity="0.7"
  />
</svg>
