<svg xmlns="http://www.w3.org/2000/svg" viewBox="0 0 240 240" role="img" aria-labelledby="title">
  <title>Coffee Shop Proxy Logo</title>
  <defs>
    <radialGradient id="coffee-glow" cx="40%" cy="35%" r="65%">
      <stop offset="0%" stop-color="#fbe3c3" />
      <stop offset="60%" stop-color="#d29d63" />
      <stop offset="100%" stop-color="#4b2a14" />
    </radialGradient>
    <linearGradient id="coffee-foam" x1="0%" y1="0%" x2="0%" y2="100%">
      <stop offset="0%" stop-color="#fff5e6" />
      <stop offset="100%" stop-color="#f5d7b0" />
    </linearGradient>
    <linearGradient id="coffee-cup" x1="0%" y1="0%" x2="100%" y2="0%">
      <stop offset="0%" stop-color="#f4e3d1" />
      <stop offset="100%" stop-color="#d9c1a6" />
    </linearGradient>
    <filter id="coffee-shadow" x="-25%" y="-25%" width="150%" height="150%">
      <feDropShadow dx="0" dy="12" stdDeviation="16" flood-color="#1c0f07" flood-opacity="0.55" />
    </filter>
  </defs>

  <circle cx="120" cy="120" r="108" fill="url(#coffee-glow)" stroke="#7a4a20" stroke-width="4" filter="url(#coffee-shadow)" />
  <circle cx="120" cy="120" r="86" fill="none" stroke="rgba(255,255,255,0.35)" stroke-width="10" stroke-dasharray="6 18" opacity="0.7" />

  <g transform="translate(45 70)">
    <path
      d="M30 40h90c8 0 14 6 13 14l-6 44c-2 15-14 26-29 26H47c-15 0-27-11-29-26l-6-44c-1-8 5-14 13-14z"
      fill="url(#coffee-cup)"
      stroke="#caa57e"
      stroke-width="5"
      stroke-linecap="round"
    />
    <path
      d="M120 52c20 0 34 14 32 32s-18 28-40 24"
      fill="none"
      stroke="#f4d6b3"
      stroke-width="12"
      stroke-linecap="round"
      opacity="0.7"
    />
    <rect x="32" y="52" width="86" height="34" rx="16" fill="#3a1f12" />
    <rect x="38" y="58" width="74" height="20" rx="10" fill="url(#coffee-foam)" opacity="0.9" />
    <path
      d="M58 25c-8-10-4-18 4-20m24 20c-8-10-4-18 4-20m24 20c-8-10-4-18 4-20"
      fill="none"
      stroke="#f9d7a5"
      stroke-width="6"
      stroke-linecap="round"
    />
    <ellipse cx="75" cy="124" rx="55" ry="10" fill="rgba(0,0,0,0.25)" />
  </g>
</svg>
