<svg xmlns="http://www.w3.org/2000/svg" viewBox="0 0 240 240" role="img" aria-labelledby="title">
  <title>SuperSonic Safezone Logo</title>
  <defs>
    <radialGradient id="supersonic-glow" cx="30%" cy="30%" r="80%">
      <stop offset="0%" stop-color="#54c1ff" stop-opacity="0.9" />
      <stop offset="45%" stop-color="#1675ff" stop-opacity="0.75" />
      <stop offset="100%" stop-color="#021437" stop-opacity="1" />
    </radialGradient>
    <linearGradient id="supersonic-ring" x1="0%" y1="0%" x2="100%" y2="100%">
      <stop offset="0%" stop-color="#64d5ff" stop-opacity="0.85" />
      <stop offset="100%" stop-color="#0a2b74" stop-opacity="0.4" />
    </linearGradient>
    <linearGradient id="supersonic-s" x1="0%" y1="0%" x2="100%" y2="100%">
      <stop offset="0%" stop-color="#f4fbff" />
      <stop offset="100%" stop-color="#7bc9ff" />
    </linearGradient>
    <filter id="supersonic-shadow" x="-30%" y="-30%" width="160%" height="160%">
      <feDropShadow dx="0" dy="15" stdDeviation="18" flood-color="#000816" flood-opacity="0.65" />
    </filter>
  </defs>

  <circle cx="120" cy="120" r="108" fill="url(#supersonic-glow)" stroke="#0b3c96" stroke-width="3" filter="url(#supersonic-shadow)" />
  <circle cx="120" cy="120" r="85" fill="none" stroke="url(#supersonic-ring)" stroke-width="18" stroke-linecap="round" opacity="0.95" />

  <path
    d="M70 150c28 20 62 16 82-6 12-13 12-29-9-31-20-2-30-6-30-18s12-21 38-21c18 0 32 4 44 10"
    fill="none"
    stroke="url(#supersonic-s)"
    stroke-width="18"
    stroke-linecap="round"
    stroke-linejoin="round"
  />

  <path
    d="M92 84c-14-8-14-24 10-29 32-6 71 4 101 24"
    fill="none"
    stroke="#0af0ff"
    stroke-width="6"
    stroke-linecap="round"
    opacity="0.55"
  />
  <circle cx="174" cy="78" r="10" fill="#f7fdff" opacity="0.85" />
</svg>
