<svg xmlns="http://www.w3.org/2000/svg" viewBox="0 0 240 240" role="img" aria-labelledby="title">
  <title>SuperSonic Safezone Logo</title>
  <defs>
    <radialGradient id="supersonic-glow" cx="35%" cy="30%" r="80%">
      <stop offset="0%" stop-color="#6dd7ff" stop-opacity="1" />
      <stop offset="55%" stop-color="#2f83ff" stop-opacity="0.9" />
      <stop offset="100%" stop-color="#021033" stop-opacity="1" />
    </radialGradient>
    <linearGradient id="supersonic-edge" x1="0%" y1="0%" x2="100%" y2="100%">
      <stop offset="0%" stop-color="#81e1ff" stop-opacity="0.85" />
      <stop offset="100%" stop-color="#0a275d" stop-opacity="0.45" />
    </linearGradient>
    <linearGradient id="supersonic-body" x1="0%" y1="0%" x2="100%" y2="0%">
      <stop offset="0%" stop-color="#0c5cff" />
      <stop offset="100%" stop-color="#0830a8" />
    </linearGradient>
    <filter id="supersonic-shadow" x="-25%" y="-25%" width="150%" height="150%">
      <feDropShadow dx="0" dy="14" stdDeviation="18" flood-color="#010b26" flood-opacity="0.65" />
    </filter>
  </defs>

  <circle cx="120" cy="120" r="108" fill="url(#supersonic-glow)" stroke="#0a2d6f" stroke-width="3" filter="url(#supersonic-shadow)" />
  <circle cx="120" cy="120" r="90" fill="none" stroke="url(#supersonic-edge)" stroke-width="14" stroke-linecap="round" opacity="0.85" />

  <path
    d="M66 150c28 18 68 20 90-10 6-8 5-16-2-20-5-3-12-4-22-7-21-7-30-26-16-38 20-17 60-20 92-1-13-24-41-39-83-33-31 4-52 19-61 42-9 22-4 39 2 49 7 11 17 16 0 18z"
    fill="url(#supersonic-body)"
  />
  <path
    d="M148 92c13-4 26-3 38 6 11 8 15 22 8 35-8 14-24 19-41 12"
    fill="none"
    stroke="#9de8ff"
    stroke-width="7"
    stroke-linecap="round"
    opacity="0.85"
  />
  <path
    d="M140 154c-16 12-36 14-52 5"
    fill="none"
    stroke="#6ec9ff"
    stroke-width="8"
    stroke-linecap="round"
    opacity="0.7"
  />
  <circle cx="175" cy="112" r="11" fill="#f6fbff" opacity="0.85" />
</svg>
